<svg width="17" height="17" viewBox="0 0 17 17" fill="none" xmlns="http://www.w3.org/2000/svg">
<path d="M0.75 7.86111H2.52778V9.63889H0.75V7.86111ZM7.86111 2.52778H9.63889V6.08333H7.86111V2.52778ZM6.08333 7.86111H9.63889V11.4167H7.86111V9.63889H6.08333V7.86111ZM11.4167 7.86111H13.1944V9.63889H14.9722V7.86111H16.75V9.63889H14.9722V11.4167H16.75V14.9722H14.9722V16.75H13.1944V14.9722H9.63889V16.75H7.86111V13.1944H11.4167V11.4167H13.1944V9.63889H11.4167V7.86111ZM14.9722 14.9722V11.4167H13.1944V14.9722H14.9722ZM11.4167 0.75H16.75V6.08333H11.4167V0.75ZM13.1944 2.52778V4.30556H14.9722V2.52778H13.1944ZM0.75 0.75H6.08333V6.08333H0.75V0.75ZM2.52778 2.52778V4.30556H4.30556V2.52778H2.52778ZM0.75 11.4167H6.08333V16.75H0.75V11.4167ZM2.52778 13.1944V14.9722H4.30556V13.1944H2.52778Z" fill="url(#paint0_linear_41_3)"/>
<defs>
<linearGradient id="paint0_linear_41_3" x1="8.75" y1="0.75" x2="8.75" y2="16.75" gradientUnits="userSpaceOnUse">
<stop offset="0.479167"/>
<stop offset="0.479267" stop-color="#F79F1F"/>
<stop offset="0.958333" stop-color="#F79F1F"/>
</linearGradient>
</defs>
</svg>
